<svg viewBox="0 0 24 24" fill="none" xmlns="http://www.w3.org/2000/svg">
  <path d="M12 15C13.6569 15 15 13.6569 15 12C15 10.3431 13.6569 9 12 9C10.3431 9 9 10.3431 9 12C9 13.6569 10.3431 15 12 15Z" stroke="currentColor" stroke-width="2" stroke-linecap="round" stroke-linejoin="round"/>
  <path d="M19.4 15C19.2669 15.3016 19.227 15.6362 19.2851 15.9606C19.3432 16.285 19.4968 16.5834 19.725 16.8167L19.8 16.8917C19.9306 17.0222 20.0393 17.1733 20.1218 17.3391C20.2043 17.5049 20.2595 17.6831 20.2851 17.8667C20.3106 18.0502 20.3061 18.2366 20.2717 18.4186C20.2373 18.6006 20.1736 18.7755 20.0833 18.9367L19.9417 19.175C19.8037 19.4154 19.6125 19.6202 19.3833 19.7725C19.1541 19.9248 18.8932 20.0206 18.6217 20.0525C18.4387 20.0733 18.253 20.0639 18.0728 20.0246C17.8926 19.9853 17.7208 19.9167 17.5667 19.8225L17.3833 19.7083C17.2205 19.6081 17.0337 19.5533 16.8433 19.5496C16.6529 19.5458 16.4652 19.5932 16.3 19.6867L16.1333 19.7833C15.9674 19.8775 15.7812 19.9306 15.5917 19.9383C15.4021 19.946 15.2151 19.908 15.0458 19.8283C14.8766 19.7486 14.7304 19.6298 14.6208 19.4825C14.5113 19.3352 14.4419 19.1641 14.4167 18.9833C14.4 18.8 14.4 18.6167 14.4 18.4333V18.3333C14.4 17.8029 14.1893 17.2942 13.8142 16.9191C13.4391 16.544 12.9304 16.3333 12.4 16.3333H11.6C11.0696 16.3333 10.5609 16.544 10.1858 16.9191C9.81071 17.2942 9.6 17.8029 9.6 18.3333V18.4333C9.6 18.6167 9.6 18.8 9.58333 18.9833C9.55812 19.1641 9.48874 19.3352 9.37918 19.4825C9.26963 19.6298 9.12344 19.7486 8.95417 19.8283C8.78491 19.908 8.59794 19.946 8.40833 19.9383C8.21872 19.9306 8.03259 19.8775 7.86667 19.7833L7.7 19.6867C7.53476 19.5932 7.34714 19.5458 7.15672 19.5496C6.9663 19.5533 6.77946 19.6081 6.61667 19.7083L6.43333 19.8225C6.27923 19.9167 6.10738 19.9853 5.92719 20.0246C5.747 20.0639 5.56134 20.0733 5.37833 20.0525C5.10683 20.0206 4.84594 19.9248 4.61672 19.7725C4.3875 19.6202 4.19626 19.4154 4.05833 19.175L3.91667 18.9367C3.82636 18.7755 3.76275 18.6006 3.72833 18.4186C3.69392 18.2366 3.68942 18.0502 3.71499 17.8667C3.74057 17.6831 3.79575 17.5049 3.87825 17.3391C3.96075 17.1733 4.06939 17.0222 4.2 16.8917L4.275 16.8167C4.50325 16.5834 4.65676 16.285 4.71487 15.9606C4.77298 15.6362 4.73314 15.3016 4.6 15C4.46686 14.6984 4.42702 14.3638 4.48513 14.0394C4.54324 13.715 4.69675 13.4166 4.925 13.1833L5 13.1083C5.13061 12.9778 5.23925 12.8267 5.32175 12.6609C5.40425 12.4951 5.45943 12.3169 5.48501 12.1333C5.51058 11.9498 5.50608 11.7634 5.47167 11.5814C5.43725 11.3994 5.37364 11.2245 5.28333 11.0633L5.14167 10.825C5.00374 10.5846 4.8125 10.3798 4.58328 10.2275C4.35406 10.0752 4.09317 9.97936 3.82167 9.9475C3.63866 9.92667 3.453 9.93606 3.27281 9.97535C3.09262 10.0147 2.92077 10.0833 2.76667 10.1775L2.58333 10.2917C2.42054 10.3919 2.2337 10.4467 2.04328 10.4504C1.85286 10.4542 1.66524 10.4068 1.5 10.3133L1.33333 10.2167C1.16741 10.1225 0.98128 10.0694 0.79167 10.0617C0.602059 10.054 0.415088 10.092 0.245826 10.1717C0.0765639 10.2514 -0.0696334 10.3702 -0.179184 10.5175C-0.288735 10.6648 -0.358118 10.8359 -0.383333 11.0167C-0.4 11.2 -0.4 11.3833 -0.4 11.5667V11.6667C-0.4 12.1971 -0.189285 12.7058 0.185786 13.0809C0.560857 13.456 1.06957 13.6667 1.6 13.6667H2.4C2.93043 13.6667 3.43914 13.456 3.81421 13.0809C4.18929 12.7058 4.4 12.1971 4.4 11.6667V11.5667C4.4 11.3833 4.4 11.2 4.41667 11.0167C4.44188 10.8359 4.51126 10.6648 4.62082 10.5175C4.73037 10.3702 4.87656 10.2514 5.04583 10.1717C5.21509 10.092 5.40206 10.054 5.59167 10.0617C5.78128 10.0694 5.96741 10.1225 6.13333 10.2167L6.3 10.3133C6.46524 10.4068 6.65286 10.4542 6.84328 10.4504C7.0337 10.4467 7.22054 10.3919 7.38333 10.2917L7.56667 10.1775C7.72077 10.0833 7.89262 10.0147 8.07281 9.97535C8.253 9.93606 8.43866 9.92667 8.62167 9.9475C8.89317 9.97936 9.15406 10.0752 9.38328 10.2275C9.6125 10.3798 9.80374 10.5846 9.94167 10.825L10.0833 11.0633C10.1736 11.2245 10.2373 11.3994 10.2717 11.5814C10.3061 11.7634 10.3106 11.9498 10.285 12.1333C10.2594 12.3169 10.2043 12.4951 10.1218 12.6609C10.0393 12.8267 9.93061 12.9778 9.8 13.1083L9.725 13.1833C9.49675 13.4166 9.34324 13.715 9.28513 14.0394C9.22702 14.3638 9.26686 14.6984 9.4 15C9.53314 15.3016 9.57298 15.6362 9.51487 15.9606C9.45676 16.285 9.30325 16.5834 9.075 16.8167L9 16.8917C8.86939 17.0222 8.76075 17.1733 8.67825 17.3391C8.59575 17.5049 8.54057 17.6831 8.51499 17.8667C8.48942 18.0502 8.49392 18.2366 8.52833 18.4186C8.56275 18.6006 8.62636 18.7755 8.71667 18.9367L8.85833 19.175C8.99626 19.4154 9.1875 19.6202 9.41672 19.7725C9.64594 19.9248 9.90683 20.0206 10.1783 20.0525C10.3613 20.0733 10.547 20.0639 10.7272 20.0246C10.9074 19.9853 11.0792 19.9167 11.2333 19.8225L11.4167 19.7083C11.5795 19.6081 11.7663 19.5533 11.9567 19.5496C12.1471 19.5458 12.3348 19.5932 12.5 19.6867L12.6667 19.7833C12.8326 19.8775 13.0187 19.9306 13.2083 19.9383C13.3979 19.946 13.5849 19.908 13.7542 19.8283C13.9234 19.7486 14.0696 19.6298 14.1792 19.4825C14.2887 19.3352 14.3581 19.1641 14.3833 18.9833C14.4 18.8 14.4 18.6167 14.4 18.4333V18.3333C14.4 17.8029 14.1893 17.2942 13.8142 16.9191C13.4391 16.544 12.9304 16.3333 12.4 16.3333H11.6C11.0696 16.3333 10.5609 16.544 10.1858 16.9191C9.81071 17.2942 9.6 17.8029 9.6 18.3333V18.4333C9.6 18.6167 9.6 18.8 9.58333 18.9833C9.55812 19.1641 9.48874 19.3352 9.37918 19.4825C9.26963 19.6298 9.12344 19.7486 8.95417 19.8283C8.78491 19.908 8.59794 19.946 8.40833 19.9383C8.21872 19.9306 8.03259 19.8775 7.86667 19.7833L7.7 19.6867C7.53476 19.5932 7.34714 19.5458 7.15672 19.5496C6.9663 19.5533 6.77946 19.6081 6.61667 19.7083L6.43333 19.8225C6.27923 19.9167 6.10738 19.9853 5.92719 20.0246C5.747 20.0639 5.56134 20.0733 5.37833 20.0525C5.10683 20.0206 4.84594 19.9248 4.61672 19.7725C4.3875 19.6202 4.19626 19.4154 4.05833 19.175L3.91667 18.9367C3.82636 18.7755 3.76275 18.6006 3.72833 18.4186C3.69392 18.2366 3.68942 18.0502 3.71499 17.8667C3.74057 17.6831 3.79575 17.5049 3.87825 17.3391C3.96075 17.1733 4.06939 17.0222 4.2 16.8917L4.275 16.8167C4.50325 16.5834 4.65676 16.285 4.71487 15.9606C4.77298 15.6362 4.73314 15.3016 4.6 15Z" fill="currentColor"/>
</svg>