<?xml version="1.0" standalone="no"?>
<!DOCTYPE svg PUBLIC "-//W3C//DTD SVG 20010904//EN"
 "http://www.w3.org/TR/2001/REC-SVG-20010904/DTD/svg10.dtd">
<svg version="1.0" xmlns="http://www.w3.org/2000/svg"
 width="980.000000pt" height="980.000000pt" viewBox="0 0 980.000000 980.000000"
 preserveAspectRatio="xMidYMid meet">

<g transform="translate(0.000000,980.000000) scale(0.100000,-0.100000)"
fill="currentColor" stroke="none">
<path d="M2075 8452 c-153 -53 -256 -170 -285 -322 -13 -71 -13 -1179 0 -1250
33 -176 174 -312 350 -340 41 -6 443 -10 1090 -10 l1026 0 249 -312 c138 -171
262 -320 276 -330 53 -40 137 -41 194 -4 14 9 139 158 277 331 l251 315 1026
0 c648 0 1050 4 1091 10 137 22 254 109 317 238 l28 57 0 670 0 670 -28 58
c-41 82 -121 160 -204 200 l-68 32 -2770 2 c-2608 2 -2773 1 -2820 -15z m5531
-355 l24 -28 0 -564 0 -564 -24 -28 -24 -28 -1114 -5 c-1064 -5 -1114 -6
-1140 -24 -15 -10 -121 -135 -234 -277 -113 -142 -210 -259 -214 -259 -5 0
-103 119 -219 264 -149 186 -221 269 -245 280 -31 15 -145 16 -1141 19 l-1106
2 -19 25 c-19 24 -20 48 -20 587 0 401 3 569 11 587 7 14 24 30 38 35 16 6
1019 9 2714 8 l2689 -2 24 -28z"/>
<path d="M4802 5269 c-375 -36 -697 -225 -897 -524 -301 -452 -260 -1063 100
-1463 25 -27 45 -53 45 -56 0 -3 -12 -6 -27 -6 -16 0 -64 -9 -108 -20 -76 -20
-80 -20 -92 -3 -111 156 -281 278 -440 315 -29 7 -53 16 -53 21 0 4 18 31 39
60 124 163 190 394 178 612 -25 441 -336 800 -770 889 -98 21 -276 20 -375 0
-367 -75 -643 -340 -744 -712 -31 -114 -31 -334 0 -456 27 -107 93 -252 152
-331 23 -31 38 -60 34 -64 -5 -4 -36 -15 -69 -25 -270 -82 -481 -315 -539
-599 -13 -61 -16 -146 -16 -421 0 -357 2 -381 43 -424 56 -60 -1 -57 990 -62
l908 -5 -1 -236 c-1 -257 7 -323 47 -370 54 -63 -73 -59 1688 -59 1753 0 1645
-4 1697 58 40 48 48 110 48 372 l0 240 908 2 c1014 3 940 -2 999 75 l28 36 3
364 c2 335 1 370 -17 448 -69 288 -278 507 -563 590 l-57 16 40 52 c59 76 135
239 161 342 31 123 31 343 0 457 -95 352 -337 599 -683 698 -106 31 -316 38
-428 16 -126 -26 -238 -71 -339 -136 -206 -133 -349 -331 -413 -570 -30 -111
-33 -347 -6 -454 33 -130 95 -263 169 -357 15 -20 28 -41 28 -46 0 -4 -24 -14
-52 -21 -152 -35 -348 -174 -438 -311 -15 -23 -16 -23 -67 -8 -28 8 -76 18
-107 22 -31 4 -56 11 -56 14 0 4 12 18 26 32 57 53 150 190 200 294 286 594
46 1299 -541 1593 -191 95 -431 141 -633 121z m348 -383 c160 -52 300 -147
406 -274 64 -77 145 -238 168 -333 113 -468 -188 -939 -663 -1035 -64 -12
-113 -15 -200 -11 -139 7 -206 24 -328 82 -494 239 -636 876 -288 1298 88 107
228 209 345 253 120 44 181 54 330 50 125 -2 156 -6 230 -30z m-2464 -131
c242 -41 436 -219 495 -456 65 -257 -51 -533 -281 -669 -197 -117 -450 -112
-637 10 -133 87 -237 239 -269 390 -18 86 -14 216 10 293 70 222 258 390 481
431 104 18 98 18 201 1z m4669 -11 c178 -43 325 -164 406 -334 188 -393 -103
-859 -541 -864 -166 -1 -302 50 -416 157 -130 121 -193 251 -201 417 -9 181
48 331 177 461 103 104 212 157 380 183 37 6 127 -4 195 -20z m-4004 -1591
c66 -33 169 -115 169 -135 0 -6 -33 -45 -73 -88 -153 -159 -235 -324 -272
-542 l-6 -38 -800 0 -801 0 4 253 3 252 32 68 c59 124 138 199 257 243 l61 23
680 -2 680 -2 66 -32z m4624 -2 c95 -47 166 -120 213 -218 l37 -78 3 -252 4
-253 -801 0 -800 0 -6 38 c-36 213 -136 411 -279 552 -36 35 -66 70 -66 76 0
15 74 83 122 112 21 13 61 32 90 42 51 19 85 20 733 17 l680 -2 70 -34z
m-2226 -282 c233 -37 422 -195 503 -419 22 -63 23 -77 26 -422 l3 -358 -1381
0 -1380 0 0 336 c0 273 3 348 16 398 46 179 180 339 350 417 125 57 127 57
999 58 510 1 823 -3 864 -10z"/>
</g>
</svg>
