<?xml version="1.0" standalone="no"?>
<!DOCTYPE svg PUBLIC "-//W3C//DTD SVG 20010904//EN"
 "http://www.w3.org/TR/2001/REC-SVG-20010904/DTD/svg10.dtd">
<svg version="1.0" xmlns="http://www.w3.org/2000/svg"
 width="512.000000pt" height="512.000000pt" viewBox="0 0 512.000000 512.000000"
 preserveAspectRatio="xMidYMid meet">

<g transform="translate(0.000000,512.000000) scale(0.100000,-0.100000)"
fill="currentColor" stroke="none">
<path d="M1420 5104 c-180 -38 -357 -177 -439 -344 -107 -219 -90 -459 49
-667 l21 -31 -55 -25 c-124 -57 -257 -170 -335 -286 -102 -151 -141 -277 -148
-483 l-6 -148 -194 0 c-225 0 -257 -9 -293 -80 -20 -39 -20 -56 -20 -1170 0
-1114 0 -1131 20 -1170 31 -61 78 -80 195 -80 l95 0 0 -250 c0 -232 2 -254 20
-290 13 -26 34 -47 60 -60 37 -19 58 -20 370 -20 312 0 333 1 370 20 26 13 47
34 60 60 18 36 20 58 20 290 l0 250 1350 0 1350 0 0 -250 c0 -232 2 -254 20
-290 13 -26 34 -47 60 -60 37 -19 58 -20 370 -20 312 0 333 1 370 20 26 13 47
34 60 60 18 36 20 58 20 290 l0 250 95 0 c117 0 164 19 195 80 20 39 20 56 20
1170 0 1114 0 1131 -20 1170 -13 26 -34 47 -60 60 -36 19 -58 20 -299 20
l-259 0 164 410 c96 240 164 423 164 442 0 46 -38 107 -80 129 -33 18 -69 19
-618 19 -646 0 -633 1 -673 -64 -10 -17 -100 -235 -200 -483 l-181 -453 -223
0 -222 0 -6 148 c-7 215 -51 351 -163 502 -86 117 -199 211 -320 267 l-55 25
21 31 c74 111 120 255 120 377 0 239 -146 473 -360 579 -139 68 -284 87 -430
55z m294 -323 c75 -37 128 -91 165 -170 22 -47 26 -70 26 -141 0 -76 -4 -93
-33 -152 -38 -77 -92 -130 -171 -167 -47 -22 -70 -26 -141 -26 -71 0 -94 4
-140 26 -82 39 -135 90 -172 167 -29 59 -33 76 -33 152 0 71 4 94 26 140 87
186 293 260 473 171z m228 -992 c165 -64 281 -181 339 -345 16 -44 23 -92 26
-191 l6 -133 -753 0 -753 0 6 133 c5 142 21 207 74 296 77 132 229 236 383
264 14 3 156 4 315 3 285 -2 291 -2 357 -27z m2356 -319 l-140 -350 -388 0
-388 0 140 350 140 350 388 0 388 0 -140 -350z m522 -1600 l0 -950 -2260 0
-2260 0 0 950 0 950 2260 0 2260 0 0 -950z m-3910 -1410 l0 -160 -150 0 -150
0 0 160 0 160 150 0 150 0 0 -160z m3600 0 l0 -160 -150 0 -150 0 0 160 0 160
150 0 150 0 0 -160z"/>
<path d="M1488 2499 c-23 -12 -46 -35 -58 -59 -19 -38 -20 -58 -20 -570 0
-512 1 -532 20 -570 23 -45 80 -80 130 -80 50 0 107 35 130 80 18 35 20 58 20
240 l0 200 194 0 195 0 3 -209 c3 -230 5 -235 72 -285 64 -48 181 -15 212 60
21 49 21 1079 0 1128 -31 75 -148 108 -212 60 -66 -49 -69 -58 -72 -265 l-3
-189 -195 0 -194 0 0 180 c0 161 -2 185 -20 220 -37 73 -127 99 -202 59z"/>
<path d="M2746 2497 c-78 -45 -76 -24 -76 -625 0 -526 0 -535 21 -572 25 -44
83 -80 129 -80 43 0 102 35 126 73 15 26 20 58 24 160 l5 128 144 -164 c86
-99 157 -171 177 -181 125 -59 260 75 198 197 -10 18 -66 87 -125 154 -60 67
-110 126 -111 131 -2 6 24 28 58 50 72 47 123 107 161 188 24 51 28 71 28 155
0 90 -2 99 -37 171 -57 114 -150 191 -273 222 -43 12 -108 16 -235 16 -163 0
-178 -2 -214 -23z m398 -292 c37 -18 66 -61 66 -99 0 -16 -14 -41 -34 -64 -34
-36 -36 -37 -120 -41 l-86 -3 0 111 0 111 71 0 c43 0 84 -6 103 -15z"/>
</g>
</svg>
